<svg width="24" height="22" viewBox="0 0 24 22" fill="none" xmlns="http://www.w3.org/2000/svg">
<path d="M19.2 9.625V12.375H24V9.625H19.2ZM16.8 18.7138C17.952 19.69 19.452 20.9825 20.64 22C21.12 21.2713 21.6 20.5287 22.08 19.8C20.892 18.7825 19.392 17.49 18.24 16.5C17.76 17.2425 17.28 17.985 16.8 18.7138ZM22.08 2.2C21.6 1.47125 21.12 0.72875 20.64 0C19.452 1.0175 17.952 2.31 16.8 3.3C17.28 4.02875 17.76 4.77125 18.24 5.5C19.392 4.51 20.892 3.23125 22.08 2.2ZM2.4 6.875C1.08 6.875 0 8.1125 0 9.625V12.375C0 13.8875 1.08 15.125 2.4 15.125H3.6V20.625H6V15.125H7.2L13.2 19.25V2.75L7.2 6.875H2.4ZM16.2 11C16.2 9.17125 15.504 7.52125 14.4 6.39375V15.5925C15.504 14.4788 16.2 12.8288 16.2 11Z" fill="white"/>
</svg>
