<svg width="22" height="26" viewBox="0 0 22 26" fill="none" xmlns="http://www.w3.org/2000/svg">
<path d="M8.73404 1.56235C8.91665 1.10074 9.22989 0.705418 9.6336 0.427063C10.0373 0.148708 10.5131 0 11 0C11.4869 0 11.9627 0.148708 12.3664 0.427063C12.7701 0.705418 13.0834 1.10074 13.266 1.56235C15.0733 2.0707 16.6675 3.17179 17.8037 4.69652C18.9399 6.22124 19.5553 8.08527 19.5554 10.0023V15.8736L21.7945 19.3086C21.9173 19.4968 21.9878 19.7157 21.9986 19.9417C22.0093 20.1677 21.9598 20.3925 21.8554 20.5921C21.7511 20.7916 21.5957 20.9584 21.4058 21.0747C21.216 21.191 20.9989 21.2524 20.7776 21.2523H15.2349C15.0878 22.2937 14.5787 23.246 13.8009 23.9348C13.0232 24.6235 12.0288 25.0026 11 25.0026C9.9712 25.0026 8.97684 24.6235 8.19908 23.9348C7.42132 23.246 6.91223 22.2937 6.76507 21.2523H1.22239C1.00111 21.2524 0.783985 21.191 0.594162 21.0747C0.40434 20.9584 0.248945 20.7916 0.144557 20.5921C0.0401689 20.3925 -0.00929576 20.1677 0.00143957 19.9417C0.0121749 19.7157 0.0827076 19.4968 0.205513 19.3086L2.44459 15.8736V10.0023C2.44459 5.97235 5.10899 2.57735 8.73404 1.56235ZM9.27181 21.2523C9.39803 21.6182 9.63209 21.9349 9.94172 22.159C10.2514 22.383 10.6213 22.5034 11.0006 22.5034C11.3799 22.5034 11.7499 22.383 12.0595 22.159C12.3691 21.9349 12.6032 21.6182 12.7294 21.2523H9.27059H9.27181ZM11 3.75235C9.37926 3.75235 7.8249 4.41083 6.67886 5.58293C5.53283 6.75503 4.88899 8.34474 4.88899 10.0023V16.2523C4.88904 16.4993 4.8176 16.7407 4.68366 16.9461L3.50668 18.7523H18.4921L17.3151 16.9461C17.1816 16.7405 17.1106 16.4991 17.111 16.2523V10.0023C17.111 8.34474 16.4672 6.75503 15.3211 5.58293C14.1751 4.41083 12.6207 3.75235 11 3.75235Z" fill="white"/>
</svg>
