<svg width="40" height="40" viewBox="0 0 40 40" fill="none" xmlns="http://www.w3.org/2000/svg">
<g clip-path="url(#clip0_787_1380)">
<path d="M29.3563 25.8583C31.777 22.555 32.8612 18.4595 32.392 14.3912C31.9228 10.3228 29.9348 6.58165 26.8257 3.91612C23.7166 1.2506 19.7156 -0.142693 15.6234 0.0149899C11.5311 0.172673 7.64923 1.8697 4.75444 4.76657C1.85965 7.66343 0.165394 11.5465 0.0106398 15.6389C-0.144115 19.7313 1.25204 23.7312 3.91979 26.8384C6.58753 29.9456 10.3301 31.931 14.3988 32.3973C18.4675 32.8636 22.5622 31.7764 25.8638 29.3533H25.8613C25.9363 29.4533 26.0163 29.5483 26.1063 29.6408L35.7313 39.2658C36.2 39.7349 36.8359 39.9986 37.4991 39.9988C38.1623 39.999 38.7984 39.7358 39.2675 39.267C39.7366 38.7983 40.0003 38.1624 40.0005 37.4992C40.0008 36.836 39.7375 36.1999 39.2688 35.7308L29.6438 26.1058C29.5544 26.0153 29.4583 25.9317 29.3563 25.8558V25.8583ZM30.0013 16.2483C30.0013 18.054 29.6456 19.842 28.9546 21.5102C28.2636 23.1784 27.2508 24.6942 25.974 25.971C24.6972 27.2478 23.1814 28.2606 21.5132 28.9516C19.8449 29.6426 18.0569 29.9983 16.2513 29.9983C14.4456 29.9983 12.6576 29.6426 10.9894 28.9516C9.32114 28.2606 7.80535 27.2478 6.52855 25.971C5.25174 24.6942 4.23893 23.1784 3.54792 21.5102C2.85692 19.842 2.50127 18.054 2.50127 16.2483C2.50127 12.6016 3.94992 9.10421 6.52855 6.52558C9.10717 3.94696 12.6045 2.4983 16.2513 2.4983C19.898 2.4983 23.3954 3.94696 25.974 6.52558C28.5526 9.10421 30.0013 12.6016 30.0013 16.2483Z" fill="#929292"/>
</g>
<defs>
<clipPath id="clip0_787_1380">
<rect width="40" height="40" fill="white"/>
</clipPath>
</defs>
</svg>
